# Blender 4.1.1
# www.blender.org
mtllib player.mtl
o float_Rarm
v -0.483733 1.078850 -0.167439
v -0.542604 1.391121 -0.167439
v -0.483733 1.078850 0.167439
v -0.542604 1.391121 0.167439
v -0.965566 0.272575 -0.326850
v -1.388499 0.541661 -0.326850
v -0.965566 0.272575 0.326850
v -1.388499 0.541661 0.326850
vn 0.9827 0.1853 -0.0000
vn 0.0899 0.1412 0.9859
vn -0.5368 -0.8437 -0.0000
vn 0.0899 0.1412 -0.9859
vn 0.8584 -0.5130 -0.0000
vn -0.7086 0.7056 -0.0000
vn 0.1564 0.0295 0.9872
vn 0.1564 0.0295 -0.9872
vt 0.779193 0.068413
vt 0.692066 0.155540
vt 0.692066 0.068413
vt 0.779193 0.242667
vt 0.692066 0.242667
vt 0.692066 0.329795
vt 0.779193 0.329795
vt 0.692066 0.416922
vt 0.604939 0.329795
vt 0.604939 0.242667
vt 0.866320 0.242667
vt 0.779193 0.155540
vt 0.779193 0.416922
vt 0.866320 0.329795
s 0
usemtl material
f 2/1/1 3/2/1 1/3/1
f 3/2/2 8/4/2 7/5/2
f 8/4/3 5/6/3 7/5/3
f 6/7/4 1/8/4 5/6/4
f 7/5/5 1/9/5 3/10/5
f 4/11/6 6/7/6 8/4/6
f 2/1/1 4/12/1 3/2/1
f 3/2/7 4/12/7 8/4/7
f 8/4/3 6/7/3 5/6/3
f 6/7/8 2/13/8 1/8/8
f 7/5/5 5/6/5 1/9/5
f 4/11/6 2/14/6 6/7/6
o float_Larm
v 0.483733 1.078850 0.167439
v 0.542604 1.391121 0.167439
v 0.483733 1.078850 -0.167439
v 0.542604 1.391121 -0.167439
v 0.965566 0.272575 0.326850
v 1.388499 0.541661 0.326849
v 0.965566 0.272575 -0.326850
v 1.388499 0.541661 -0.326850
vn -0.9827 0.1853 -0.0000
vn -0.0899 0.1412 -0.9859
vn 0.5368 -0.8437 -0.0000
vn -0.0899 0.1412 0.9859
vn -0.8584 -0.5130 -0.0000
vn 0.7086 0.7056 -0.0000
vn -0.1564 0.0295 -0.9872
vn -0.1564 0.0295 0.9872
vt 0.270437 0.117638
vt 0.190095 0.197980
vt 0.190095 0.117638
vt 0.270437 0.278322
vt 0.190095 0.278322
vt 0.270437 0.358664
vt 0.190095 0.358664
vt 0.190095 0.439006
vt 0.109753 0.358664
vt 0.109753 0.278322
vt 0.350779 0.358664
vt 0.270437 0.197980
vt 0.270437 0.439006
vt 0.350779 0.278322
s 0
usemtl material
f 10/15/9 11/16/9 9/17/9
f 11/16/10 16/18/10 15/19/10
f 15/19/11 14/20/11 13/21/11
f 14/20/12 9/22/12 13/21/12
f 15/19/13 9/23/13 11/24/13
f 16/18/14 10/25/14 14/20/14
f 10/15/9 12/26/9 11/16/9
f 11/16/15 12/26/15 16/18/15
f 15/19/11 16/18/11 14/20/11
f 14/20/16 10/27/16 9/22/16
f 15/19/13 13/21/13 9/23/13
f 16/18/14 12/28/14 10/25/14
o float_Body
v 0.249200 0.426157 -0.315059
v 0.431306 1.486996 -0.315059
v 0.249200 0.426157 0.315059
v 0.431306 1.486996 0.315059
v -0.249200 0.426157 -0.315059
v -0.431306 1.486996 -0.315059
v -0.249200 0.426157 0.315059
v -0.431306 1.486996 0.315059
vn 0.9856 -0.1692 -0.0000
vn -0.0000 -0.0000 1.0000
vn -0.9856 -0.1692 -0.0000
vn -0.0000 -0.0000 -1.0000
vn -0.0000 -1.0000 -0.0000
vn -0.0000 1.0000 -0.0000
vt 0.766971 0.631969
vt 0.694988 0.703952
vt 0.694988 0.631969
vt 0.766971 0.703952
vt 0.694988 0.775935
vt 0.766971 0.775935
vt 0.694988 0.847918
vt 0.766971 0.847918
vt 0.694988 0.919901
vt 0.623005 0.847918
vt 0.623005 0.775935
vt 0.838954 0.775935
vt 0.766971 0.919901
vt 0.838954 0.847918
s 0
usemtl material
f 18/29/17 19/30/17 17/31/17
f 20/32/18 23/33/18 19/30/18
f 24/34/19 21/35/19 23/33/19
f 22/36/20 17/37/20 21/35/20
f 23/33/21 17/38/21 19/39/21
f 20/40/22 22/36/22 24/34/22
f 18/29/17 20/32/17 19/30/17
f 20/32/18 24/34/18 23/33/18
f 24/34/19 22/36/19 21/35/19
f 22/36/20 18/41/20 17/37/20
f 23/33/21 21/35/21 17/38/21
f 20/40/22 18/42/22 22/36/22
o float_Head
v -0.487247 1.595595 0.394306
v -0.487247 2.355712 0.394306
v -0.487247 1.595595 -0.394306
v -0.487247 2.355712 -0.394306
v 0.487247 1.595595 0.394305
v 0.487247 2.355712 0.394305
v 0.487247 1.595595 -0.394306
v 0.487247 2.355712 -0.394306
vn -1.0000 -0.0000 -0.0000
vn -0.0000 -0.0000 -1.0000
vn 1.0000 -0.0000 -0.0000
vn -0.0000 -0.0000 1.0000
vn -0.0000 -1.0000 -0.0000
vn -0.0000 1.0000 -0.0000
vt 0.111140 0.865827
vt 0.038579 0.778296
vt 0.111140 0.778296
vt 0.285075 0.664616
vt 0.174157 0.575445
vt 0.286362 0.577095
vt 0.388962 0.885508
vt 0.316401 0.797978
vt 0.388962 0.797978
vt 0.284502 0.849928
vt 0.173973 0.760276
vt 0.286169 0.762413
vt 0.285890 0.672414
vt 0.172252 0.742728
vt 0.173695 0.670182
vt 0.288347 0.881823
vt 0.176113 0.954357
vt 0.176130 0.881796
vt 0.038579 0.865827
vt 0.172870 0.662966
vt 0.316401 0.885508
vt 0.172306 0.847791
vt 0.284447 0.744961
vt 0.288330 0.954384
s 0
usemtl material
f 26/43/23 27/44/23 25/45/23
f 28/46/24 31/47/24 27/48/24
f 32/49/25 29/50/25 31/51/25
f 30/52/26 25/53/26 29/54/26
f 31/55/27 25/56/27 27/57/27
f 28/58/28 30/59/28 32/60/28
f 26/43/23 28/61/23 27/44/23
f 28/46/24 32/62/24 31/47/24
f 32/49/25 30/63/25 29/50/25
f 30/52/26 26/64/26 25/53/26
f 31/55/27 29/65/27 25/56/27
f 28/58/28 26/66/28 30/59/28
