# Blender 4.1.1
# www.blender.org
mtllib needle_arm.mtl
o Arm
v 0.000000 0.000000 0.660000
v 0.000000 0.000000 -0.660000
v -0.123751 -0.123752 0.000000
v -0.123751 0.123752 0.000000
v 0.123751 -0.123752 0.000000
v 0.123751 0.123752 0.000000
v -0.128047 -0.128048 0.380000
v -0.170250 -0.170250 0.280000
v -0.170250 0.170250 0.280000
v -0.128047 0.128048 0.380000
v 0.170250 -0.170250 0.280000
v 0.128047 -0.128048 0.380000
v 0.128047 0.128048 0.380000
v 0.170250 0.170250 0.280000
v -0.170250 -0.170250 -0.280000
v -0.128047 -0.128048 -0.380000
v -0.128047 0.128048 -0.380000
v -0.170250 0.170250 -0.280000
v 0.128047 -0.128048 -0.380000
v 0.170250 -0.170250 -0.280000
v 0.170250 0.170250 -0.280000
v 0.128047 0.128048 -0.380000
v -0.205605 0.205606 -0.380000
v -0.205605 0.205606 -0.280000
v 0.205605 0.205606 -0.280000
v 0.205605 0.205606 -0.380000
v 0.205605 -0.205606 -0.380000
v 0.205605 -0.205606 -0.280000
v -0.205605 -0.205606 -0.280000
v -0.205605 -0.205606 -0.380000
v -0.205605 0.205606 0.280000
v -0.205605 0.205606 0.380000
v 0.205605 0.205606 0.380000
v 0.205605 0.205606 0.280000
v 0.205605 -0.205606 0.280000
v 0.205605 -0.205606 0.380000
v -0.205605 -0.205606 0.380000
v -0.205605 -0.205606 0.280000
vn -0.0000 0.9094 -0.4159
vn 0.9865 -0.0000 -0.1638
vn -0.9865 -0.0000 -0.1638
vn -0.0000 0.9865 -0.1638
vn -0.0000 0.9865 0.1638
vn 0.9094 -0.0000 -0.4159
vn 0.9094 -0.0000 0.4159
vn -0.9865 -0.0000 0.1638
vn -0.9094 -0.0000 -0.4159
vn -0.0000 -0.9094 0.4159
vn 0.9865 -0.0000 0.1638
vn -0.0000 -0.9865 -0.1638
vn -0.0000 0.9094 0.4159
vn -0.0000 -0.9865 0.1638
vn -0.0000 -0.0000 -1.0000
vn -0.0000 -0.0000 1.0000
vn -0.9094 -0.0000 0.4159
vn -0.0000 -0.9094 -0.4159
vn -0.0000 1.0000 -0.0000
vn -0.0000 -1.0000 -0.0000
vn 1.0000 -0.0000 -0.0000
vn -1.0000 -0.0000 -0.0000
vt 0.603076 0.639169
vt 0.407535 0.639169
vt 0.465203 0.500507
vt 0.198589 0.553307
vt 0.341126 0.737322
vt 0.203575 0.703230
vt 0.372497 0.395767
vt 0.191427 0.216684
vt 0.372497 0.212640
vt 0.195008 0.384996
vt 0.363131 0.571400
vt 0.017519 0.374224
vt 0.017519 0.557351
vt 0.604192 0.443632
vt 0.407535 0.017519
vt 0.546524 0.074394
vt 0.408652 0.213056
vt 0.026885 0.198591
vt 0.465203 0.777831
vt 0.546524 0.351719
vt 0.407535 0.408594
vt 0.044627 0.752472
vt 0.186441 0.066762
vt 0.604192 0.213056
vt 0.048890 0.032670
vt 0.639231 0.739056
vt 0.944969 0.702572
vt 0.982478 0.739053
vt 0.769732 0.522694
vt 0.886225 0.498341
vt 0.855591 0.526308
vt 0.982478 0.395806
vt 0.676740 0.432289
vt 0.639231 0.395808
vt 0.945996 0.433315
vt 0.851978 0.233880
vt 0.735485 0.258233
vt 0.766119 0.230265
vt 0.982478 0.017519
vt 0.676740 0.054001
vt 0.639231 0.017519
vt 0.639233 0.360767
vt 0.944971 0.324285
vt 0.982481 0.360767
vt 0.769733 0.144406
vt 0.886227 0.120053
vt 0.855592 0.148021
vt 0.604192 0.834706
vt 0.945997 0.055029
vt 0.675714 0.323257
vt 0.879946 0.264514
vt 0.741766 0.113772
vt 0.879944 0.642801
vt 0.675713 0.701546
vt 0.735483 0.636521
vt 0.741765 0.492060
vt 0.851977 0.612167
vt 0.766118 0.608553
vt 0.345389 0.017519
s 0
usemtl Material
f 2/1/1 17/2/1 22/3/1
f 6/4/2 11/5/2 5/6/2
f 9/7/3 3/8/3 8/9/3
f 4/10/4 14/11/4 6/4/4
f 18/12/5 6/4/5 21/13/5
f 2/1/6 22/3/6 19/14/6
f 12/15/7 13/16/7 1/17/7
f 4/10/8 15/18/8 3/8/8
f 16/19/9 17/2/9 2/1/9
f 7/20/10 12/21/10 1/17/10
f 21/13/11 5/6/11 20/22/11
f 5/23/12 8/9/12 3/8/12
f 13/16/13 10/24/13 1/17/13
f 20/25/14 3/8/14 15/18/14
f 9/26/15 34/27/15 14/28/15
f 7/29/16 36/30/16 12/31/16
f 11/32/15 38/33/15 8/34/15
f 14/28/15 35/35/15 11/32/15
f 1/17/17 10/24/17 7/20/17
f 22/36/15 27/37/15 19/38/15
f 18/39/16 29/40/16 15/41/16
f 20/42/16 25/43/16 21/44/16
f 16/45/15 23/46/15 17/47/15
f 2/1/18 19/48/18 16/19/18
f 25/43/19 23/46/19 24/49/19
f 29/40/20 27/37/20 28/50/20
f 28/50/21 26/51/21 25/43/21
f 30/52/22 24/49/22 23/46/22
f 19/38/15 30/52/15 16/45/15
f 15/41/16 28/50/16 20/42/16
f 17/47/15 26/51/15 22/36/15
f 21/44/16 24/49/16 18/39/16
f 33/53/19 31/54/19 32/55/19
f 37/56/20 35/35/20 36/30/20
f 36/30/21 34/27/21 33/53/21
f 38/33/22 32/55/22 31/54/22
f 13/57/16 32/55/16 10/58/16
f 8/34/15 31/54/15 9/26/15
f 12/31/16 33/53/16 13/57/16
f 10/58/16 37/56/16 7/29/16
f 6/4/2 14/11/2 11/5/2
f 9/7/3 4/10/3 3/8/3
f 4/10/4 9/7/4 14/11/4
f 18/12/5 4/10/5 6/4/5
f 4/10/8 18/12/8 15/18/8
f 21/13/11 6/4/11 5/6/11
f 5/23/12 11/59/12 8/9/12
f 20/25/14 5/23/14 3/8/14
f 9/26/15 31/54/15 34/27/15
f 7/29/16 37/56/16 36/30/16
f 11/32/15 35/35/15 38/33/15
f 14/28/15 34/27/15 35/35/15
f 22/36/15 26/51/15 27/37/15
f 18/39/16 24/49/16 29/40/16
f 20/42/16 28/50/16 25/43/16
f 16/45/15 30/52/15 23/46/15
f 25/43/19 26/51/19 23/46/19
f 29/40/20 30/52/20 27/37/20
f 28/50/21 27/37/21 26/51/21
f 30/52/22 29/40/22 24/49/22
f 19/38/15 27/37/15 30/52/15
f 15/41/16 29/40/16 28/50/16
f 17/47/15 23/46/15 26/51/15
f 21/44/16 25/43/16 24/49/16
f 33/53/19 34/27/19 31/54/19
f 37/56/20 38/33/20 35/35/20
f 36/30/21 35/35/21 34/27/21
f 38/33/22 37/56/22 32/55/22
f 13/57/16 33/53/16 32/55/16
f 8/34/15 38/33/15 31/54/15
f 12/31/16 36/30/16 33/53/16
f 10/58/16 32/55/16 37/56/16
